<svg xmlns="http://www.w3.org/2000/svg" viewBox="0 0 480 128" width="480" height="128">
  <defs>
    <linearGradient id="hull-grad" x1="0" y1="0" x2="1" y2="0">
      <stop offset="0%" stop-color="#b95a2d"/>
      <stop offset="100%" stop-color="#e07a3f"/>
    </linearGradient>
  </defs>

  <!-- Basin walls -->
  <path d="M16 58 L28 58 L34 102 L94 102 L100 58 L112 58 L106 110 L22 110 Z" fill="#d6e0eb"/>
  <!-- Keel block -->
  <rect x="59" y="90" width="10" height="12" fill="#8fa1b7"/>
  <!-- Hull with subtle gradient -->
  <path d="M35 32 L93 32 L93 58 C93 80 77 90 64 90 C51 90 35 80 35 58 Z" fill="url(#hull-grad)"/>
  <!-- Waterline stripe at basin wall tops -->
  <line x1="36" y1="58" x2="92" y2="58" stroke="#ffad73" stroke-width="1.5"/>
  <!-- Ark cabin -->
  <path d="M64 12 L87 22 L87 32 L41 32 L41 22 Z" fill="#e6a15f"/>

  <!-- Wordmark -->
  <text x="144" y="76" font-family="'Inter', 'Helvetica Neue', Arial, sans-serif" font-size="52" font-weight="600" fill="#f3f7fb" letter-spacing="2">drydock</text>
</svg>
